<svg width="6600" height="600" viewBox="0 0 6600 600" fill="none" xmlns="http://www.w3.org/2000/svg">
<path d="M320.853 95.6998L156.646 51.7006C148.644 49.5565 140.419 54.3052 138.275 62.3072L126.628 105.774C124.484 113.776 129.232 122.001 137.234 124.145L301.442 168.144C309.444 170.288 317.669 165.54 319.813 157.538L331.46 114.071C333.604 106.069 328.855 97.844 320.853 95.6998Z" fill="#FF8800"/>
<path d="M240.251 164.689L191.955 151.748L157.014 282.148C154.87 290.15 159.619 298.375 167.621 300.519L186.939 305.696C194.941 307.84 203.166 303.091 205.31 295.089L240.251 164.689Z" fill="#FF8800"/>
<path d="M266.133 68.0966L217.837 55.1557C219.623 48.4874 226.478 44.5301 233.146 46.3168L257.294 52.7873C263.962 54.5741 267.92 61.4283 266.133 68.0966Z" fill="#FF8800"/>
<path d="M400 310.33H80V430.03H400V310.33Z" fill="#FF8800"/>
<path d="M520 310.33H413.333V370.18C448.667 370.18 520 345.575 520 310.33Z" fill="#FF8800"/>
<path d="M186.667 443.33H293.333C261.333 469.93 293.333 563.03 386.667 563.03L373.333 576.33H106.667L93.3333 563.03C186.667 563.03 224 469.93 186.667 443.33Z" fill="#FF8800"/>
<path d="M937.987 126.815L790.762 41.8147C783.588 37.6725 774.414 40.1307 770.272 47.3051L747.772 86.2762C743.63 93.4506 746.088 102.624 753.262 106.767L900.487 191.767C907.661 195.909 916.835 193.451 920.977 186.276L943.477 147.305C947.619 140.131 945.161 130.957 937.987 126.815Z" fill="#FF8800"/>
<path d="M842.275 172.592L798.974 147.592L731.474 264.505C727.332 271.68 729.79 280.854 736.964 284.996L754.285 294.996C761.459 299.138 770.633 296.68 774.775 289.505L842.275 172.592Z" fill="#FF8800"/>
<path d="M892.275 85.9893L848.974 60.9894C852.426 55.0107 860.071 52.9623 866.049 56.414L887.7 68.914C893.678 72.3658 895.727 80.0107 892.275 85.9893Z" fill="#FF8800"/>
<path d="M1000 310.33H680V430.03H1000V310.33Z" fill="#FF8800"/>
<path d="M1120 310.33H1013.33V370.18C1048.67 370.18 1120 345.575 1120 310.33Z" fill="#FF8800"/>
<path d="M786.667 443.33H893.333C861.333 469.93 893.333 563.03 986.667 563.03L973.333 576.33H706.667L693.333 563.03C786.667 563.03 824 469.93 786.667 443.33Z" fill="#FF8800"/>
<path d="M1546.49 161.304L1426.28 41.0957C1420.42 35.2378 1410.92 35.2378 1405.06 41.0957L1373.24 72.9155C1367.39 78.7733 1367.39 88.2708 1373.24 94.1287L1493.45 214.337C1499.31 220.195 1508.81 220.195 1514.67 214.337L1546.49 182.517C1552.34 176.659 1552.34 167.162 1546.49 161.304Z" fill="#FF8800"/>
<path d="M1442.19 180.749L1406.83 145.394L1311.37 240.853C1305.51 246.711 1305.51 256.209 1311.37 262.067L1325.51 276.209C1331.37 282.067 1340.87 282.067 1346.73 276.209L1442.19 180.749Z" fill="#FF8800"/>
<path d="M1512.9 110.039L1477.54 74.6832C1482.42 69.8017 1490.34 69.8017 1495.22 74.6832L1512.9 92.3609C1517.78 97.2425 1517.78 105.157 1512.9 110.039Z" fill="#FF8800"/>
<path d="M1600 310.33H1280V430.03H1600V310.33Z" fill="#FF8800"/>
<path d="M1720 310.33H1613.33V370.18C1648.67 370.18 1720 345.575 1720 310.33Z" fill="#FF8800"/>
<path d="M1386.67 443.33H1493.33C1461.33 469.93 1493.33 563.03 1586.67 563.03L1573.33 576.33H1306.67L1293.33 563.03C1386.67 563.03 1424 469.93 1386.67 443.33Z" fill="#FF8800"/>
<path d="M2145.77 196.817L2060.77 49.5927C2056.63 42.4183 2047.45 39.9601 2040.28 44.1023L2001.31 66.6023C1994.13 70.7444 1991.67 79.9183 1995.82 87.0927L2080.82 234.317C2084.96 241.491 2094.13 243.949 2101.31 239.807L2140.28 217.307C2147.45 213.165 2149.91 203.991 2145.77 196.817Z" fill="#FF8800"/>
<path d="M2039.99 188.605L2014.99 145.304L1898.08 212.804C1890.9 216.946 1888.44 226.12 1892.59 233.295L1902.59 250.615C1906.73 257.789 1915.9 260.248 1923.08 256.105L2039.99 188.605Z" fill="#FF8800"/>
<path d="M2126.59 138.605L2101.59 95.3042C2107.57 91.8524 2115.22 93.9008 2118.67 99.8795L2131.17 121.53C2134.62 127.509 2132.57 135.154 2126.59 138.605Z" fill="#FF8800"/>
<path d="M2200 310.33H1880V430.03H2200V310.33Z" fill="#FF8800"/>
<path d="M2320 310.33H2213.33V370.18C2248.67 370.18 2320 345.575 2320 310.33Z" fill="#FF8800"/>
<path d="M1986.67 443.33H2093.33C2061.33 469.93 2093.33 563.03 2186.67 563.03L2173.33 576.33H1906.67L1893.33 563.03C1986.67 563.03 2024 469.93 1986.67 443.33Z" fill="#FF8800"/>
<path d="M2735.88 230.934L2691.88 66.7266C2689.74 58.7246 2681.51 53.9759 2673.51 56.12L2630.04 67.7669C2622.04 69.911 2617.29 78.136 2619.44 86.138L2663.44 250.345C2665.58 258.347 2673.8 263.096 2681.81 260.952L2725.27 249.305C2733.28 247.161 2738.02 238.936 2735.88 230.934Z" fill="#FF8800"/>
<path d="M2635.83 195.625L2622.89 147.329L2492.49 182.269C2484.49 184.414 2479.74 192.639 2481.88 200.641L2487.06 219.959C2489.21 227.961 2497.43 232.71 2505.43 230.566L2635.83 195.625Z" fill="#FF8800"/>
<path d="M2732.42 169.743L2719.48 121.447C2726.15 119.66 2733.01 123.617 2734.79 130.286L2741.26 154.434C2743.05 161.102 2739.09 167.956 2732.42 169.743Z" fill="#FF8800"/>
<path d="M2800 310.33H2480V430.03H2800V310.33Z" fill="#FF8800"/>
<path d="M2920 310.33H2813.33V370.18C2848.67 370.18 2920 345.575 2920 310.33Z" fill="#FF8800"/>
<path d="M2586.67 443.33H2693.33C2661.33 469.93 2693.33 563.03 2786.67 563.03L2773.33 576.33H2506.67L2493.33 563.03C2586.67 563.03 2624 469.93 2586.67 443.33Z" fill="#FF8800"/>
<path d="M3317.5 261.33V91.3298C3317.5 83.0456 3310.78 76.3298 3302.5 76.3298H3257.5C3249.22 76.3298 3242.5 83.0456 3242.5 91.3298V261.33C3242.5 269.614 3249.22 276.33 3257.5 276.33H3302.5C3310.78 276.33 3317.5 269.614 3317.5 261.33Z" fill="#FF8800"/>
<path d="M3230 201.33V151.33H3095C3086.72 151.33 3080 158.046 3080 166.33V186.33C3080 194.614 3086.72 201.33 3095 201.33H3230Z" fill="#FF8800"/>
<path d="M3330 201.33V151.33C3336.9 151.33 3342.5 156.926 3342.5 163.83V188.83C3342.5 195.733 3336.9 201.33 3330 201.33Z" fill="#FF8800"/>
<path d="M3400 310.33H3080V430.03H3400V310.33Z" fill="#FF8800"/>
<path d="M3520 310.33H3413.33V370.18C3448.67 370.18 3520 345.575 3520 310.33Z" fill="#FF8800"/>
<path d="M3186.67 443.33H3293.33C3261.33 469.93 3293.33 563.03 3386.67 563.03L3373.33 576.33H3106.67L3093.33 563.03C3186.67 563.03 3224 469.93 3186.67 443.33Z" fill="#FF8800"/>
<path d="M3429.62 183.463C3431.57 181.512 3434.74 181.512 3436.69 183.463C3438.64 185.414 3438.64 188.576 3436.69 190.527L3373.11 254.102C3371.16 256.053 3368 256.053 3366.05 254.102C3364.1 252.151 3364.1 248.989 3366.05 247.038L3429.62 183.463Z" fill="#FF8800"/>
<path d="M3383.42 275.848C3380.72 276.446 3378.26 274.542 3377.66 271.848C3377.07 269.155 3378.55 265.675 3381.25 265.078L3449.52 249.942C3452.21 249.345 3454.88 251.044 3455.47 253.738C3456.07 256.431 3454.37 259.098 3451.68 259.695L3383.42 275.848Z" fill="#FF8800"/>
<path d="M3351.27 202.3C3351.87 199.607 3354.53 197.908 3357.23 198.505C3359.92 199.102 3361.62 201.769 3361.02 204.462L3352.37 243.475C3351.78 246.168 3349.11 247.867 3346.41 247.27C3343.72 246.673 3342.02 244.006 3342.62 241.312L3351.27 202.3Z" fill="#FF8800"/>
<path d="M3935.88 230.934L3891.88 66.7266C3889.74 58.7246 3881.51 53.9759 3873.51 56.12L3830.04 67.7669C3822.04 69.911 3817.29 78.136 3819.44 86.138L3863.44 250.345C3865.58 258.347 3873.8 263.096 3881.81 260.952L3925.27 249.305C3933.28 247.161 3938.02 238.936 3935.88 230.934Z" fill="#FF8800"/>
<path d="M3835.83 195.625L3822.89 147.329L3692.49 182.269C3684.49 184.414 3679.74 192.639 3681.88 200.641L3687.06 219.959C3689.21 227.961 3697.43 232.71 3705.43 230.566L3835.83 195.625Z" fill="#FF8800"/>
<path d="M3932.42 169.743L3919.48 121.447C3926.15 119.66 3933.01 123.617 3934.79 130.286L3941.26 154.434C3943.05 161.102 3939.09 167.956 3932.42 169.743Z" fill="#FF8800"/>
<path d="M4000 310.33H3680V430.03H4000V310.33Z" fill="#FF8800"/>
<path d="M4120 310.33H4013.33V370.18C4048.67 370.18 4120 345.575 4120 310.33Z" fill="#FF8800"/>
<path d="M3786.67 443.33H3893.33C3861.33 469.93 3893.33 563.03 3986.67 563.03L3973.33 576.33H3706.67L3693.33 563.03C3786.67 563.03 3824 469.93 3786.67 443.33Z" fill="#FF8800"/>
<path d="M4545.77 196.817L4460.77 49.5927C4456.63 42.4183 4447.45 39.9601 4440.28 44.1023L4401.31 66.6023C4394.13 70.7444 4391.67 79.9183 4395.82 87.0927L4480.82 234.317C4484.96 241.491 4494.13 243.949 4501.31 239.807L4540.28 217.307C4547.45 213.165 4549.91 203.991 4545.77 196.817Z" fill="#FF8800"/>
<path d="M4439.99 188.605L4414.99 145.304L4298.08 212.804C4290.9 216.946 4288.44 226.12 4292.59 233.295L4302.59 250.615C4306.73 257.789 4315.9 260.248 4323.08 256.105L4439.99 188.605Z" fill="#FF8800"/>
<path d="M4526.59 138.605L4501.59 95.3042C4507.57 91.8524 4515.22 93.9008 4518.67 99.8795L4531.17 121.53C4534.62 127.509 4532.57 135.154 4526.59 138.605Z" fill="#FF8800"/>
<path d="M4600 310.33H4280V430.03H4600V310.33Z" fill="#FF8800"/>
<path d="M4720 310.33H4613.33V370.18C4648.67 370.18 4720 345.575 4720 310.33Z" fill="#FF8800"/>
<path d="M4386.67 443.33H4493.33C4461.33 469.93 4493.33 563.03 4586.67 563.03L4573.33 576.33H4306.67L4293.33 563.03C4386.67 563.03 4424 469.93 4386.67 443.33Z" fill="#FF8800"/>
<path d="M5146.49 161.304L5026.28 41.0957C5020.42 35.2378 5010.92 35.2378 5005.06 41.0957L4973.24 72.9155C4967.39 78.7733 4967.39 88.2708 4973.24 94.1287L5093.45 214.337C5099.31 220.195 5108.81 220.195 5114.67 214.337L5146.49 182.517C5152.34 176.659 5152.34 167.162 5146.49 161.304Z" fill="#FF8800"/>
<path d="M5042.19 180.749L5006.83 145.394L4911.37 240.853C4905.51 246.711 4905.51 256.209 4911.37 262.067L4925.51 276.209C4931.37 282.067 4940.87 282.067 4946.73 276.209L5042.19 180.749Z" fill="#FF8800"/>
<path d="M5112.9 110.039L5077.54 74.6832C5082.42 69.8017 5090.34 69.8017 5095.22 74.6832L5112.9 92.3609C5117.78 97.2425 5117.78 105.157 5112.9 110.039Z" fill="#FF8800"/>
<path d="M5200 310.33H4880V430.03H5200V310.33Z" fill="#FF8800"/>
<path d="M5320 310.33H5213.33V370.18C5248.67 370.18 5320 345.575 5320 310.33Z" fill="#FF8800"/>
<path d="M4986.67 443.33H5093.33C5061.33 469.93 5093.33 563.03 5186.67 563.03L5173.33 576.33H4906.67L4893.33 563.03C4986.67 563.03 5024 469.93 4986.67 443.33Z" fill="#FF8800"/>
<path d="M5737.99 126.815L5590.76 41.8147C5583.59 37.6725 5574.41 40.1307 5570.27 47.3051L5547.77 86.2762C5543.63 93.4506 5546.09 102.624 5553.26 106.767L5700.49 191.767C5707.66 195.909 5716.83 193.451 5720.98 186.276L5743.48 147.305C5747.62 140.131 5745.16 130.957 5737.99 126.815Z" fill="#FF8800"/>
<path d="M5642.28 172.592L5598.97 147.592L5531.47 264.505C5527.33 271.68 5529.79 280.854 5536.96 284.996L5554.28 294.996C5561.46 299.138 5570.63 296.68 5574.78 289.505L5642.28 172.592Z" fill="#FF8800"/>
<path d="M5692.28 85.9893L5648.97 60.9894C5652.43 55.0107 5660.07 52.9623 5666.05 56.414L5687.7 68.914C5693.68 72.3658 5695.73 80.0107 5692.28 85.9893Z" fill="#FF8800"/>
<path d="M5800 310.33H5480V430.03H5800V310.33Z" fill="#FF8800"/>
<path d="M5920 310.33H5813.33V370.18C5848.67 370.18 5920 345.575 5920 310.33Z" fill="#FF8800"/>
<path d="M5586.67 443.33H5693.33C5661.33 469.93 5693.33 563.03 5786.67 563.03L5773.33 576.33H5506.67L5493.33 563.03C5586.67 563.03 5624 469.93 5586.67 443.33Z" fill="#FF8800"/>
<path d="M6320.85 95.6998L6156.65 51.7006C6148.64 49.5565 6140.42 54.3052 6138.27 62.3072L6126.63 105.774C6124.48 113.776 6129.23 122.001 6137.23 124.145L6301.44 168.144C6309.44 170.288 6317.67 165.54 6319.81 157.538L6331.46 114.071C6333.6 106.069 6328.86 97.844 6320.85 95.6998Z" fill="#FF8800"/>
<path d="M6240.25 164.689L6191.95 151.748L6157.01 282.148C6154.87 290.15 6159.62 298.375 6167.62 300.519L6186.94 305.696C6194.94 307.84 6203.17 303.091 6205.31 295.089L6240.25 164.689Z" fill="#FF8800"/>
<path d="M6266.13 68.0966L6217.84 55.1557C6219.62 48.4874 6226.48 44.5301 6233.15 46.3168L6257.29 52.7873C6263.96 54.5741 6267.92 61.4283 6266.13 68.0966Z" fill="#FF8800"/>
<path d="M6400 310.33H6080V430.03H6400V310.33Z" fill="#FF8800"/>
<path d="M6520 310.33H6413.33V370.18C6448.67 370.18 6520 345.575 6520 310.33Z" fill="#FF8800"/>
<path d="M6186.67 443.33H6293.33C6261.33 469.93 6293.33 563.03 6386.67 563.03L6373.33 576.33H6106.67L6093.33 563.03C6186.67 563.03 6224 469.93 6186.67 443.33Z" fill="#FF8800"/>
</svg>
