<svg width="24" height="24" viewBox="0 0 24 24" fill="none" xmlns="http://www.w3.org/2000/svg">
<path d="M18.002 2.99707H5.99901C5.20339 2.99945 4.44104 3.31663 3.87855 3.87931C3.31605 4.442 2.99912 5.20445 2.99701 6.00007V18.0021C2.99991 18.7973 3.31715 19.559 3.87954 20.1212C4.44192 20.6834 5.20381 21.0004 5.99901 21.0031H18.002C18.797 21.0002 19.5587 20.6831 20.1208 20.1209C20.683 19.5587 21.0001 18.7971 21.003 18.0021V6.00007C21.0006 5.2047 20.6838 4.44256 20.1215 3.87995C19.5593 3.31735 18.7974 2.99997 18.002 2.99707ZM16.362 15.6441C16.21 16.0041 15.973 16.3241 15.669 16.5711C15.3095 16.8503 14.9003 17.0586 14.463 17.1851C13.973 17.3361 13.389 17.4141 12.713 17.4141H7.88801V6.90907H12.991C13.934 6.90907 14.691 7.12207 15.258 7.55507C15.827 7.99107 16.112 8.63707 16.112 9.51307C16.112 10.0411 15.982 10.4961 15.723 10.8701C15.464 11.2431 15.093 11.5341 14.612 11.7381V11.7721C15.254 11.9071 15.749 12.2101 16.076 12.6841C16.403 13.1571 16.569 13.7531 16.569 14.4731C16.569 14.8781 16.491 15.2611 16.344 15.6201L16.364 15.6411V15.6441H16.362ZM14.278 13.0551C13.969 12.7731 13.539 12.6361 12.981 12.6361H9.73701V15.9121H12.99C13.544 15.9121 13.981 15.7681 14.288 15.4771C14.596 15.1881 14.752 14.7761 14.752 14.2481C14.747 13.7301 14.596 13.3291 14.288 13.0551H14.274H14.278ZM13.827 10.9361C14.126 10.6851 14.271 10.3231 14.271 9.85207C14.271 9.32607 14.14 8.95007 13.874 8.73607C13.61 8.52207 13.228 8.41007 12.728 8.41007H9.72701V11.3081H12.728C13.164 11.3091 13.538 11.1811 13.827 10.9361Z" fill="#FFA552"/>
</svg>
