<svg width="24" height="24" viewBox="0 0 24 24" fill="none" xmlns="http://www.w3.org/2000/svg">
<path fill-rule="evenodd" clip-rule="evenodd" d="M3 4C3 3.44772 3.44772 3 4 3H20C20.5523 3 21 3.44772 21 4V20C21 20.5523 20.5523 21 20 21H4C3.44772 21 3 20.5523 3 20V4ZM5.55611 13.9212C5.63139 13.9964 5.72159 14.0341 5.8267 14.0341C5.89773 14.0341 5.96165 14.017 6.01847 13.983C6.0767 13.9474 6.12287 13.9006 6.15696 13.8423C6.19247 13.7841 6.21023 13.7202 6.21023 13.6506C6.21023 13.5455 6.17259 13.4553 6.0973 13.38C6.02202 13.3047 5.93182 13.267 5.8267 13.267C5.72159 13.267 5.63139 13.3047 5.55611 13.38C5.48082 13.4553 5.44318 13.5455 5.44318 13.6506C5.44318 13.7557 5.48082 13.8459 5.55611 13.9212ZM10.641 14V9.63636H10.1211V13.071H10.0785L7.69212 9.63636H7.18075V14H7.70916V10.5739H7.75178L10.1296 14H10.641ZM11.6983 9.63636V14H14.3659V13.5312H12.2267V12.0483H14.1955V11.5795H12.2267V10.1051H14.3319V9.63636H11.6983ZM15.0456 9.63636V10.1051H16.4178V14H16.9462V10.1051H18.3184V9.63636H15.0456Z" fill="#FFA552"/>
</svg>
