<svg width="24" height="24" viewBox="0 0 24 24" fill="none" xmlns="http://www.w3.org/2000/svg">
<path d="M15.4629 8.51514C15.4629 8.06982 15.4541 7.68896 15.4365 7.37256C15.4189 7.05615 15.3984 6.79248 15.375 6.58154C15.3516 6.36475 15.3311 6.19189 15.3135 6.06299C15.2959 5.92822 15.2871 5.82568 15.2871 5.75537C15.2871 5.66748 15.3311 5.59424 15.4189 5.53564C15.5127 5.47705 15.624 5.44775 15.7529 5.44775C16.0518 5.44775 16.2715 5.50928 16.4121 5.63232C16.5527 5.74951 16.6494 5.93994 16.7021 6.20361C16.7256 6.31494 16.7461 6.43506 16.7637 6.56396C16.7871 6.68701 16.8047 6.83057 16.8164 6.99463C16.834 7.15869 16.8457 7.34619 16.8516 7.55713C16.8633 7.76221 16.8691 8.00244 16.8691 8.27783C16.8691 9.31494 16.8135 10.2905 16.7021 11.2046C16.5908 12.1128 16.4385 12.9478 16.2451 13.7095C16.0518 14.4712 15.8203 15.1538 15.5508 15.7573C15.2871 16.355 15.0029 16.8618 14.6982 17.2778C14.3936 17.688 14.0713 18.0015 13.7314 18.2183C13.3975 18.4409 13.0635 18.5522 12.7295 18.5522C12.6006 18.5522 12.4629 18.5259 12.3164 18.4731C12.1758 18.4204 12.0439 18.3325 11.9209 18.2095C11.8037 18.0923 11.7041 17.9341 11.6221 17.7349C11.5459 17.5356 11.5078 17.2866 11.5078 16.9878V6.854C11.1035 6.90674 10.7197 7.021 10.3564 7.19678C9.99902 7.37256 9.68555 7.61279 9.41602 7.91748C9.15234 8.22217 8.94141 8.59131 8.7832 9.0249C8.63086 9.4585 8.55469 9.95947 8.55469 10.5278C8.55469 10.8911 8.59277 11.2192 8.66895 11.5122C8.74512 11.7993 8.83594 12.0454 8.94141 12.2505C9.04688 12.4497 9.15234 12.605 9.25781 12.7163C9.36328 12.8276 9.44531 12.8833 9.50391 12.8833C9.55664 12.8833 9.60645 12.8716 9.65332 12.8481C9.7002 12.8247 9.74707 12.813 9.79395 12.813C9.8877 12.813 9.93457 12.8862 9.93457 13.0327C9.93457 13.2202 9.89062 13.4019 9.80273 13.5776C9.7207 13.7476 9.61523 13.8882 9.48633 13.9995C9.35742 14.105 9.2168 14.1724 9.06445 14.2017C8.91211 14.231 8.77148 14.1987 8.64258 14.105C8.48438 13.9995 8.31445 13.8384 8.13281 13.6216C7.95703 13.4048 7.79297 13.144 7.64062 12.8394C7.49414 12.5288 7.37109 12.1802 7.27148 11.7935C7.17773 11.4067 7.13086 10.9849 7.13086 10.5278C7.13086 9.89502 7.20703 9.32959 7.35938 8.83154C7.51172 8.32764 7.71387 7.88818 7.96582 7.51318C8.22363 7.13818 8.52246 6.81885 8.8623 6.55518C9.20215 6.2915 9.55957 6.07764 9.93457 5.91357C10.3096 5.74951 10.6904 5.63232 11.0771 5.56201C11.4639 5.48584 11.833 5.44775 12.1846 5.44775C12.2783 5.44775 12.3691 5.46826 12.457 5.50928C12.5449 5.54443 12.6211 5.59717 12.6855 5.66748C12.75 5.73193 12.8027 5.81104 12.8438 5.90479C12.8848 5.99854 12.9053 6.09814 12.9053 6.20361V16.8823C12.9053 16.9995 12.9229 17.0728 12.958 17.1021C12.999 17.1255 13.0371 17.1372 13.0723 17.1372C13.1602 17.1372 13.2803 17.061 13.4326 16.9087C13.585 16.7505 13.749 16.5132 13.9248 16.1968C14.1064 15.8804 14.2881 15.4849 14.4697 15.0103C14.6514 14.5356 14.8154 13.979 14.9619 13.3403C15.1084 12.7017 15.2285 11.981 15.3223 11.1782C15.416 10.3755 15.4629 9.48779 15.4629 8.51514Z" fill="#FF8800"/>
</svg>
