<svg width="24" height="24" viewBox="0 0 24 24" fill="none" xmlns="http://www.w3.org/2000/svg">
<path d="M17.5955 7.6567C16.992 8.27864 16.1699 8.64103 15.3036 8.66703H11.9716V18.663C11.9714 19.5467 11.6203 20.3942 10.9955 21.0192C10.3707 21.6441 9.52333 21.9955 8.63962 21.996C7.77005 21.9747 6.94327 21.6143 6.33578 20.9918C5.7283 20.3692 5.38826 19.5339 5.38826 18.664C5.38826 17.7942 5.7283 16.9588 6.33578 16.3363C6.94327 15.7137 7.77005 15.3533 8.63962 15.332C7.76578 15.3169 6.93285 14.9591 6.32024 14.3358C5.70763 13.7125 5.36435 12.8735 5.36435 11.9995C5.36435 11.1256 5.70763 10.2866 6.32024 9.66324C6.93285 9.03992 7.76578 8.68217 8.63962 8.66703C7.77336 8.64103 6.95128 8.27864 6.34773 7.6567C5.74417 7.03476 5.4066 6.20218 5.4066 5.33553C5.4066 4.46887 5.74417 3.6363 6.34773 3.01436C6.95128 2.39242 7.77336 2.03003 8.63962 2.00403H15.3036C16.1699 2.03003 16.992 2.39242 17.5955 3.01436C18.1991 3.6363 18.5366 4.46887 18.5366 5.33553C18.5366 6.20218 18.1991 7.03476 17.5955 7.6567Z" fill="#FFA552"/>
<path d="M18.6356 11.9991C18.6356 13.8393 17.1439 15.3311 15.3036 15.3311C13.4634 15.3311 11.9716 13.8393 11.9716 11.9991C11.9716 10.1588 13.4634 8.66703 15.3036 8.66703C17.1438 8.66703 18.6356 10.1588 18.6356 11.9991Z" fill="#FFA552"/>
</svg>
