<svg width="24" height="24" viewBox="0 0 24 24" fill="none" xmlns="http://www.w3.org/2000/svg">
<path fill-rule="evenodd" clip-rule="evenodd" d="M12 2.27222C6.491 2.27222 2.026 6.73722 2.026 12.2462C2.026 16.6522 4.883 20.3912 8.847 21.7112C9.346 21.8012 9.526 21.4942 9.526 21.2302C9.526 20.9932 9.518 20.3652 9.515 19.5342C6.74 20.1362 6.154 18.1962 6.154 18.1962C5.702 17.0442 5.047 16.7372 5.047 16.7372C4.142 16.1182 5.116 16.1322 5.116 16.1322C6.118 16.2022 6.643 17.1602 6.643 17.1602C7.533 18.6842 8.979 18.2442 9.545 17.9892C9.636 17.3442 9.896 16.9042 10.18 16.6552C7.966 16.4042 5.638 15.5482 5.638 11.7252C5.638 10.6382 6.027 9.74622 6.662 9.05022C6.561 8.79722 6.216 7.78222 6.761 6.41022C6.761 6.41022 7.598 6.14122 9.503 7.43122C10.3166 7.20989 11.1558 7.09691 11.999 7.09522C12.8422 7.09658 13.6815 7.20957 14.495 7.43122C16.401 6.14022 17.237 6.41022 17.237 6.41022C17.782 7.78222 17.44 8.79722 17.336 9.05022C17.976 9.74622 18.36 10.6372 18.36 11.7252C18.36 15.5582 16.03 16.4002 13.808 16.6472C14.163 16.9552 14.483 17.5632 14.483 18.4932C14.483 19.8272 14.471 20.9032 14.471 21.2302C14.471 21.4972 14.649 21.8072 15.158 21.7092C19.12 20.3872 21.974 16.6512 21.974 12.2462C21.974 6.73722 17.509 2.27222 12 2.27222Z" fill="#FFA552"/>
</svg>
