<svg width="24" height="24" viewBox="0 0 24 24" fill="none" xmlns="http://www.w3.org/2000/svg">
<path d="M13.0754 6.90712C12.5564 5.69012 12.6304 4.32312 13.3794 3.22112L13.9374 2.44812C12.9004 4.31912 13.8884 6.61612 15.4734 7.82012C15.7533 8.03042 16.0531 8.21295 16.3684 8.36512C16.6701 8.50857 16.9844 8.62373 17.3074 8.70912C19.0794 9.14012 20.5254 8.84312 21.3854 7.60412C21.3592 7.64204 21.3256 7.702 21.2829 7.77847C20.9004 8.46234 19.7793 10.4668 16.5234 9.83812C16.4627 9.82762 16.4053 9.80868 16.3479 9.78974C16.3288 9.78343 16.3097 9.77712 16.2904 9.77112C16.2116 9.7473 16.1335 9.72095 16.0564 9.69212C14.7464 9.21112 13.6234 8.19912 13.0754 6.90712Z" fill="#FFA552"/>
<path d="M8.79441 4.80909C7.52441 6.63609 7.59441 9.08209 8.58441 11.0141C8.75041 11.3381 8.93741 11.6531 9.14541 11.9521C9.16901 11.9858 9.19289 12.0203 9.21711 12.0553C9.38895 12.3035 9.57766 12.5761 9.79941 12.7681C9.89141 12.8691 9.98641 12.9671 10.0834 13.0631L10.1594 13.1371C10.2534 13.2291 10.3494 13.3191 10.4504 13.4081L10.4614 13.4181L10.4644 13.4201C10.5754 13.5171 10.6884 13.6101 10.8044 13.7011L10.8824 13.7611C11.0019 13.8538 11.124 13.9431 11.2484 14.0291C11.2864 14.0556 11.3254 14.0811 11.364 14.1063L11.4094 14.1361C11.418 14.1417 11.4265 14.1475 11.4351 14.1532C11.4522 14.1648 11.4694 14.1764 11.4874 14.1871C11.5862 14.2509 11.6866 14.3122 11.7884 14.3711C11.8513 14.4075 11.9163 14.4433 11.9811 14.4789L12.0214 14.5011C12.0399 14.5118 12.06 14.522 12.0798 14.532L12.1034 14.5441C12.1219 14.5535 12.1401 14.563 12.1582 14.5724C12.1942 14.5912 12.2299 14.6098 12.2664 14.6271C12.3869 14.6866 12.5086 14.7436 12.6314 14.7981L12.7054 14.8291C12.7984 14.8681 12.8914 14.9061 12.9864 14.9421L13.1034 14.9861C13.171 15.0112 13.2379 15.0339 13.3047 15.0565L13.3594 15.0751L13.4764 15.1121C13.5061 15.1214 13.5358 15.1313 13.5656 15.1412C13.6575 15.1716 13.7506 15.2025 13.8464 15.2191C20.4024 16.3051 21.9144 11.2581 21.9144 11.2581C20.5504 13.2221 17.9084 14.1601 15.0894 13.4281C14.8381 13.3631 14.5901 13.2856 14.3464 13.1961L14.2284 13.1531C14.1096 13.1077 13.9918 13.0594 13.8754 13.0081C13.7596 12.9576 13.6449 12.9046 13.5314 12.8491C13.4958 12.8316 13.4607 12.8134 13.4254 12.7951C13.4041 12.784 13.3828 12.773 13.3614 12.7621L13.2624 12.7111C13.0813 12.6127 12.9036 12.5083 12.7294 12.3981L12.6494 12.3451C12.4418 12.2099 12.2409 12.0648 12.0474 11.9101C10.8134 10.9361 9.83441 9.60409 9.36941 8.09509C8.88141 6.52909 8.98741 4.77209 9.83141 3.34509L8.79441 4.80909Z" fill="#FFA552"/>
<path d="M3.34537 6.93512C1.58937 9.45812 1.80737 12.7411 3.14937 15.4221L3.24737 15.6121C3.25501 15.6267 3.26251 15.6415 3.27003 15.6563C3.28318 15.6823 3.29637 15.7083 3.31037 15.7331C3.32074 15.7539 3.33261 15.7739 3.34403 15.7931L3.34937 15.8021C3.41245 15.9184 3.47847 16.0331 3.54737 16.1461L3.62037 16.2661C3.68833 16.3776 3.75868 16.4876 3.83137 16.5961C3.903 16.7038 3.97668 16.8102 4.05237 16.9151L4.08837 16.9641C4.15137 17.0521 4.21737 17.1391 4.28437 17.2251L4.35837 17.3191L4.54037 17.5421L4.60937 17.6241C4.69137 17.7211 4.77637 17.8181 4.86137 17.9131L4.86637 17.9181L4.86933 17.9209C4.87194 17.9234 4.87415 17.9254 4.87637 17.9291C4.94543 18.0048 5.01727 18.0799 5.089 18.1548L5.13237 18.2001L5.21537 18.2831L5.42037 18.4841L5.50437 18.5641C5.59637 18.6511 5.69037 18.7361 5.78537 18.8201L5.78937 18.8241L5.83837 18.8651C5.92137 18.9381 6.00737 19.0101 6.09337 19.0801L6.19837 19.1641C6.38212 19.3114 6.57055 19.4529 6.76337 19.5881L6.78315 19.6025C6.80528 19.6187 6.82724 19.6347 6.85037 19.6501L6.87437 19.6671C6.94039 19.7132 7.00793 19.7569 7.07501 19.8004L7.10537 19.8201L7.13498 19.84C7.15825 19.8558 7.18182 19.8717 7.20637 19.8871C7.49364 20.0704 7.78929 20.2403 8.09237 20.3961L8.13194 20.4169C8.18349 20.4439 8.23479 20.4708 8.28737 20.4971L8.33237 20.5191L8.41237 20.5581L8.45818 20.5797C8.54517 20.6207 8.63277 20.662 8.72037 20.7011L8.78637 20.7301C8.90537 20.7821 9.02537 20.8321 9.14637 20.8791L9.23437 20.9141C9.361 20.9633 9.48835 21.0107 9.61637 21.0561C9.74137 21.1001 9.86837 21.1411 9.99637 21.1801L10.0884 21.2081C10.1183 21.2173 10.1483 21.2268 10.1783 21.2363C10.2766 21.2675 10.3758 21.299 10.4784 21.3181C18.9704 22.8661 21.4364 16.2161 21.4364 16.2161C19.3644 18.9141 15.6884 19.6261 12.2044 18.8341C12.0989 18.8102 11.9954 18.7792 11.8923 18.7483L11.8144 18.7251L11.7174 18.6961C11.4626 18.6174 11.2107 18.5293 10.9624 18.4321L10.8694 18.3961C10.7494 18.3491 10.6304 18.2991 10.5134 18.2481L10.4424 18.2171C10.3414 18.1719 10.241 18.1252 10.1414 18.0771L10.0544 18.0351C10.0047 18.0109 9.95538 17.9855 9.90624 17.9601C9.87827 17.9457 9.85029 17.9313 9.82237 17.9171C9.80529 17.9081 9.788 17.8992 9.77063 17.8902C9.73613 17.8724 9.70128 17.8544 9.66737 17.8351C9.57371 17.7849 9.48103 17.7329 9.38937 17.6791L9.29537 17.6271C9.17299 17.5551 9.05197 17.4807 8.93237 17.4041L8.83437 17.3391C8.74719 17.2831 8.66085 17.2257 8.57537 17.1671L8.49237 17.1081C8.41037 17.0501 8.32837 16.9921 8.24837 16.9321C8.13756 16.849 8.02821 16.764 7.92037 16.6771L7.82137 16.5981C7.7294 16.5222 7.63733 16.4461 7.54737 16.3671C7.43932 16.273 7.33297 16.177 7.22837 16.0791L7.22642 16.0773C7.19912 16.052 7.17276 16.0275 7.14737 16.0011C7.07681 15.9347 7.00746 15.867 6.93937 15.7981L6.85837 15.7171C6.77216 15.6289 6.68749 15.5392 6.60437 15.4481L6.59237 15.4361C6.50475 15.3399 6.41874 15.2422 6.33437 15.1431L6.26737 15.0621C6.18067 14.9595 6.09599 14.8551 6.01337 14.7491C5.94027 14.6549 5.86859 14.5595 5.79837 14.4631C3.86437 11.8251 3.17037 8.18612 4.71537 5.19812L3.34537 6.93512Z" fill="#FFA552"/>
</svg>
