<svg width="24" height="24" viewBox="0 0 24 24" fill="none" xmlns="http://www.w3.org/2000/svg">
<path d="M3 4C3 3.44772 3.44772 3 4 3H20C20.5523 3 21 3.44772 21 4V20C21 20.5523 20.5523 21 20 21H4C3.44772 21 3 20.5523 3 20V4ZM19.5083 16.6829C19.5123 16.6888 19.5214 16.6851 19.5202 16.6781C19.3813 15.8698 18.8403 15.1884 17.273 14.552C16.7512 14.3072 16.175 14.1339 15.958 13.7643C15.9329 13.7215 15.9171 13.674 15.9051 13.6258C15.8545 13.4226 15.8505 13.3011 15.89 13.169C16.003 12.685 16.577 12.54 17.027 12.674C17.0885 12.6929 17.1489 12.7177 17.2077 12.7485C17.596 12.952 18.1659 13.0809 18.5353 12.8447V12.8447C18.8746 12.6277 18.9208 12.2048 18.636 11.92V11.92C18.163 11.392 17.533 11.122 16.51 11.145L15.982 11.212C15.475 11.336 14.991 11.607 14.699 11.966C13.844 12.934 14.091 14.621 15.126 15.32C16.149 16.085 17.647 16.253 17.838 16.973C18.018 17.851 17.186 18.132 16.363 18.031C16.0341 17.9573 15.7842 17.8346 15.5653 17.6481C15.2187 17.3529 14.7393 17.2057 14.3446 17.4324V17.4324C13.9635 17.6513 13.8168 18.1225 14.1083 18.4513C14.162 18.5117 14.2196 18.5762 14.282 18.649C15.587 19.965 18.85 19.898 19.435 17.895C19.4557 17.829 19.6105 17.38 19.4961 16.6881C19.495 16.6811 19.5042 16.677 19.5083 16.6829V16.6829ZM12.785 11.315C12.7866 11.2923 12.7686 11.273 12.7459 11.273H11.9149C11.466 11.273 11.102 11.637 11.1014 12.0859C11.0996 13.2658 11.095 14.4428 11.095 15.627C11.095 16.551 11.142 17.399 10.991 17.66C10.7627 18.1378 10.1997 18.1177 9.88747 18.0392C9.83938 18.0272 9.79325 18.0086 9.75002 17.9843C9.49565 17.8413 9.35455 17.6476 9.193 17.378V17.378C9.1338 17.2798 9.0463 17.2639 8.94868 17.3241L8.49846 17.6019C8.06196 17.8712 7.88319 18.4474 8.23638 18.8193C8.38169 18.9723 8.54443 19.1055 8.724 19.213C9.365 19.596 10.226 19.72 11.128 19.518C11.716 19.348 12.223 18.999 12.486 18.459C12.87 17.762 12.788 16.906 12.785 15.95C12.793 14.409 12.785 12.867 12.785 11.315V11.315Z" fill="#FFA552"/>
</svg>
