<svg width="24" height="24" viewBox="0 0 24 24" fill="none" xmlns="http://www.w3.org/2000/svg">
<path d="M11.9529 3H12.7057C13.308 3.3764 13.2703 4.28603 13.1763 4.6938C12.7371 5.4466 11.7836 7.38505 11.4825 9.11649C11.1813 10.8479 11.6079 12.3473 11.8589 12.8805C11.3319 13.3322 10.3219 13.3196 9.88276 13.2569C9.12996 10.9985 8.09485 10.528 7.53025 9.58699C7.07857 8.83419 7.34205 7.70499 7.53025 7.23449C8.13249 6.1053 10.7296 3.941 11.9529 3Z" fill="#FFA552"/>
<path d="M13.1763 6.85809C13.9291 5.7289 14.18 4.75653 14.2114 4.4115L16.752 7.70499C16.7207 7.86183 16.6768 8.55189 16.752 10.0575C16.8273 11.5631 18.289 13.5706 19.0104 14.3861C18.5588 15.7411 17.7558 16.519 17.4107 16.7386C16.2063 13.8779 13.835 13.1001 12.7999 13.0687C12.2729 12.7676 12.2666 10.5594 12.3294 9.49289C12.298 9.08512 12.4235 7.98729 13.1763 6.85809Z" fill="#FFA552"/>
<path d="M8.37716 19.4675C10.9367 15.5529 8.56536 11.8768 7.05976 10.528L4.98956 14.9507V15.9858L8.37716 19.4675Z" fill="#FFA552"/>
<path d="M9.03586 20.0321C10.5415 18.1501 10.416 15.3584 10.1651 14.1979C11.1437 13.7462 12.7685 13.8842 13.4586 14.0097C16.1874 14.8566 16.752 17.3973 16.8461 17.6796C16.9402 17.9619 16.2815 19.5616 16.1874 19.938C16.0933 20.3144 15.3405 21.1613 14.9641 20.9731C14.5877 20.7849 11.5766 20.1262 10.8238 20.0321C10.2215 19.9568 9.38089 20.0007 9.03586 20.0321Z" fill="#FFA552"/>
</svg>
