<svg width="24" height="24" viewBox="0 0 24 24" fill="none" xmlns="http://www.w3.org/2000/svg">
<path fill-rule="evenodd" clip-rule="evenodd" d="M13.913 11.7325H9.58501C6.98901 11.7325 7.07201 14.2865 7.07201 14.2865V16.4275H5.54801C5.54801 16.4275 2.99301 16.5915 2.99301 11.9775C2.99301 7.36353 5.92001 7.69553 5.92001 7.69553H12.016V7.07853H7.65301L7.64701 5.02353C7.64701 5.02353 7.36201 3.04053 11.936 3.04053C16.714 3.04053 16.345 5.43153 16.345 5.43153V9.38253C16.345 11.7715 13.913 11.7325 13.913 11.7325ZM8.97393 5.76261C9.12115 5.90982 9.32082 5.99253 9.52901 5.99253C9.73721 5.99253 9.93687 5.90982 10.0841 5.76261C10.2313 5.61539 10.314 5.41572 10.314 5.20753C10.314 4.99933 10.2313 4.79966 10.0841 4.65245C9.93687 4.50523 9.73721 4.42253 9.52901 4.42253C9.32082 4.42253 9.12115 4.50523 8.97393 4.65245C8.82672 4.79966 8.74401 4.99933 8.74401 5.20753C8.74401 5.41572 8.82672 5.61539 8.97393 5.76261Z" fill="#FFA552"/>
<path fill-rule="evenodd" clip-rule="evenodd" d="M16.928 7.57255H18.452C18.452 7.57255 21.007 7.40955 21.007 12.0235C21.007 16.6375 18.08 16.3055 18.08 16.3055H11.983V16.9225H16.346L16.352 18.9765C16.352 18.9765 16.637 20.9595 12.064 20.9595C7.28601 20.9595 7.65501 18.5685 7.65501 18.5685V14.6175C7.65501 12.2275 10.087 12.2675 10.087 12.2675H14.415C17.011 12.2675 16.928 9.71355 16.928 9.71355V7.57255ZM15.0261 18.2385C14.8789 18.0913 14.6792 18.0085 14.471 18.0085C14.2628 18.0085 14.0631 18.0913 13.9159 18.2385C13.7687 18.3857 13.686 18.5854 13.686 18.7935C13.686 19.0017 13.7687 19.2014 13.9159 19.3486C14.0631 19.4958 14.2628 19.5785 14.471 19.5785C14.6792 19.5785 14.8789 19.4958 15.0261 19.3486C15.1733 19.2014 15.256 19.0017 15.256 18.7935C15.256 18.5854 15.1733 18.3857 15.0261 18.2385Z" fill="#FFA552"/>
</svg>
