<svg width="24" height="24" viewBox="0 0 24 24" fill="none" xmlns="http://www.w3.org/2000/svg">
<path d="M12.0005 13.7855C12.9864 13.7855 13.7855 12.9863 13.7855 12.0005C13.7855 11.0147 12.9864 10.2155 12.0005 10.2155C11.0147 10.2155 10.2155 11.0147 10.2155 12.0005C10.2155 12.9863 11.0147 13.7855 12.0005 13.7855Z" fill="#FFA552"/>
<path fill-rule="evenodd" clip-rule="evenodd" d="M1.99051 11.9965C1.99051 13.3786 3.5175 14.5874 6.19815 15.3395C5.50959 18.0327 5.79357 19.957 6.99653 20.6485C7.30279 20.8218 7.64966 20.9105 8.00153 20.9055C9.11296 20.9055 10.523 20.1195 11.9987 18.6816C13.4752 20.1187 14.8853 20.9055 15.9985 20.9055C16.3504 20.9108 16.6974 20.822 17.0035 20.6485C18.2046 19.957 18.4876 18.0319 17.8016 15.3396C20.4824 14.5876 22.0095 13.3796 22.0095 11.9965C22.0095 10.6124 20.4833 9.40436 17.8017 8.65239C18.4904 5.95892 18.2057 4.03601 17.0035 3.3435C15.826 2.66386 13.9699 3.3968 12 5.30945C10.0292 3.39583 8.17215 2.66288 6.99654 3.34349C5.79332 4.03513 5.50948 5.95834 6.19947 8.65315C3.51887 9.4051 1.99051 10.6132 1.99051 11.9965ZM7.41049 11.9965C7.0285 12.8195 6.69851 13.6685 6.42551 14.5365C4.19551 13.9095 2.82751 12.9505 2.82751 11.9965C2.82751 11.0405 4.19651 10.0825 6.42551 9.45448C6.69667 10.3229 7.02572 11.1721 7.41049 11.9965ZM7.88926 12.9739C8.07312 13.3312 8.26525 13.6841 8.46549 14.0325C8.66664 14.379 8.87584 14.7206 9.09292 15.0572C8.44601 14.9782 7.82619 14.8724 7.23925 14.7412C7.42686 14.142 7.64401 13.5523 7.88926 12.9739ZM9.70374 15.9624L9.70449 15.9635C10.229 16.7069 10.8018 17.4157 11.4175 18.0855C9.78353 19.6725 8.23753 20.3975 7.41253 19.9275C6.58453 19.4495 6.43853 17.7855 7.00853 15.5435C7.89674 15.7423 8.7971 15.8822 9.70374 15.9624ZM10.7914 16.0391C11.1986 16.0588 11.6025 16.0685 12.0005 16.0685C12.3969 16.0685 12.7999 16.0585 13.2058 16.039C12.8265 16.5399 12.4236 17.0226 11.9984 17.4854C11.573 17.0226 11.1701 16.5398 10.7914 16.0391ZM14.2913 15.9646L14.2925 15.9645L14.2947 15.9614C15.2023 15.8824 16.1019 15.7404 16.9915 15.5425C17.5635 17.7845 17.4165 19.4485 16.5875 19.9265C16.4215 20.0215 16.2235 20.0715 15.9985 20.0715C15.1165 20.0715 13.8855 19.3525 12.5835 18.0855C13.1991 17.4171 13.7697 16.7086 14.2913 15.9646ZM14.905 15.0588C15.3406 14.384 15.7432 13.6884 16.1112 12.9745C16.3558 13.5519 16.5726 14.1407 16.7609 14.739C16.1477 14.8755 15.5283 14.9822 14.905 15.0588ZM16.5885 11.9975L16.5878 11.9959C16.9722 11.1714 17.3018 10.3224 17.5745 9.45448C19.8055 10.0835 21.1735 11.0405 21.1735 11.9965C21.1735 12.9505 19.8045 13.9095 17.5745 14.5365C17.3207 13.715 16.9882 12.863 16.5885 11.9975ZM16.1104 11.0191C15.7411 10.3039 15.3376 9.6068 14.9013 8.9303C15.5259 9.00732 16.1465 9.11457 16.7608 9.2517C16.5722 9.85102 16.3554 10.441 16.1104 11.0191ZM13.2081 7.95283C12.8293 7.45242 12.4265 6.97048 12.0012 6.5087C11.5763 6.9706 11.1737 7.45247 10.7949 7.95264C11.5988 7.91408 12.4042 7.91415 13.2081 7.95283ZM9.09558 8.93196C8.47217 9.00912 7.85274 9.11614 7.23943 9.25268C7.42745 9.85137 7.64422 10.4406 7.88897 11.0182C8.07281 10.6609 8.26485 10.3079 8.46549 9.95952C8.66558 9.61585 8.87631 9.27217 9.09558 8.93196ZM8.33449 11.9965C8.86275 10.895 9.47523 9.83581 10.1665 8.82852C11.387 8.73452 12.613 8.73452 13.8335 8.82852C14.5242 9.83618 15.1366 10.8953 15.6655 11.9965C15.1348 13.0968 14.5224 14.1557 13.8335 15.1645C12.5995 15.2575 11.4015 15.2575 10.1665 15.1645C9.4787 14.155 8.86637 13.0962 8.33449 11.9965ZM7.41254 4.06649C7.57954 3.97049 7.77754 3.92149 8.00154 3.92149C8.88454 3.92149 10.1145 4.63949 11.4175 5.90649C10.8013 6.57639 10.2291 7.28555 9.70454 8.02949C8.79854 8.10849 7.89954 8.24949 7.00854 8.44649C6.43854 6.20449 6.58454 4.54349 7.41254 4.06649ZM14.2935 8.0295C15.2475 8.1145 16.1515 8.2575 16.9915 8.4465C17.5625 6.2045 17.4165 4.5435 16.5875 4.0655C15.7635 3.5885 14.2125 4.3185 12.5835 5.9065C13.1995 6.5765 13.7715 7.2845 14.2935 8.0295Z" fill="#FFA552"/>
</svg>
