<svg width="24" height="24" viewBox="0 0 24 24" fill="none" xmlns="http://www.w3.org/2000/svg">
<path fill-rule="evenodd" clip-rule="evenodd" d="M21.3044 12.4307L22 12L21.3044 11.5693C21.2895 11.244 21.2578 10.923 21.2102 10.6071L21.8069 10.0493L21.0423 9.76279C20.9643 9.4482 20.8703 9.13985 20.7612 8.83866L21.2394 8.1734L20.4294 8.04124C20.2919 7.74983 20.1397 7.46663 19.9738 7.19261L20.3153 6.44335L19.4908 6.47254C19.3006 6.2155 19.0974 5.96854 18.8824 5.73263L19.0719 4.92808L18.2674 5.11762C18.0315 4.90257 17.7845 4.69945 17.5275 4.50922L17.5566 3.68473L16.8074 4.02622C16.5334 3.8603 16.2502 3.70811 15.9588 3.57059L15.8266 2.76059L15.1613 3.23879C14.8601 3.12967 14.5518 3.03568 14.2372 2.95773L13.9507 2.1931L13.3929 2.78986C13.077 2.74222 12.756 2.71052 12.4308 2.69561L12 2L11.5692 2.69561C11.2439 2.7105 10.9229 2.74218 10.607 2.78979L10.0493 2.1931L9.76285 2.95754C9.44814 3.03548 9.13968 3.12947 8.8384 3.23859L8.1734 2.76059L8.04131 3.57014C7.74969 3.70771 7.4663 3.85998 7.1921 4.02598L6.44335 3.68473L6.47252 4.50858C6.21525 4.69895 5.96808 4.90224 5.73198 5.11747L4.92808 4.92808L5.11747 5.73199C4.90225 5.96809 4.69898 6.21526 4.50862 6.47252L3.68473 6.44335L4.026 7.19215C3.86001 7.46633 3.70775 7.7497 3.57018 8.0413L2.76059 8.1734L3.23861 8.83843C3.12948 9.13971 3.03548 9.44816 2.95754 9.76285L2.1931 10.0493L2.78976 10.607C2.74213 10.9229 2.71044 11.244 2.69554 11.5693L2 12L2.69554 12.4307C2.71045 12.756 2.74214 13.0771 2.78979 13.393L2.1931 13.9507L2.95763 14.2372C3.03559 14.5518 3.1296 14.8602 3.23873 15.1614L2.76059 15.8266L3.57049 15.9587C3.70802 16.2502 3.86023 16.5334 4.02617 16.8075L3.68473 17.5566L4.5091 17.5275C4.69936 17.7845 4.90252 18.0315 5.1176 18.2675L4.92808 19.0719L5.73251 18.8824C5.96846 19.0975 6.21546 19.3006 6.47254 19.4909L6.44335 20.3153L7.19251 19.9738C7.46656 20.1398 7.7498 20.292 8.04126 20.4295L8.1734 21.2394L8.83857 20.7613C9.1398 20.8704 9.44819 20.9644 9.76282 21.0424L10.0493 21.8069L10.607 21.2102C10.9229 21.2579 11.244 21.2896 11.5693 21.3045L12 22L12.4307 21.3045C12.756 21.2896 13.0771 21.2579 13.393 21.2102L13.9507 21.8069L14.2372 21.0424C14.5518 20.9644 14.8602 20.8704 15.1614 20.7613L15.8266 21.2394L15.9587 20.4295C16.2502 20.292 16.5334 20.1398 16.8075 19.9738L17.5566 20.3153L17.5275 19.4909C17.7845 19.3006 18.0315 19.0975 18.2675 18.8824L19.0719 19.0719L18.8824 18.2675C19.0975 18.0315 19.3006 17.7845 19.4909 17.5275L20.3153 17.5566L19.9738 16.8074C20.1397 16.5334 20.292 16.2502 20.4295 15.9588L21.2394 15.8266L20.7612 15.1614C20.8704 14.8602 20.9644 14.5518 21.0423 14.2372L21.8069 13.9507L21.2102 13.3929C21.2578 13.0771 21.2895 12.756 21.3044 12.4307ZM12.408 3.69833C12.2968 3.58385 12.1454 3.51747 11.9862 3.51335C11.9042 3.51098 11.8226 3.52507 11.7462 3.55481C11.6698 3.58454 11.6002 3.6293 11.5414 3.68645C11.4826 3.74359 11.4358 3.81195 11.4039 3.88748C11.372 3.96301 11.3556 4.04417 11.3556 4.12616C11.3556 4.28868 11.4202 4.44455 11.5351 4.55948C11.6501 4.6744 11.8059 4.73897 11.9685 4.73897C12.131 4.73897 12.2869 4.6744 12.4018 4.55948C12.5167 4.44455 12.5813 4.28868 12.5813 4.12616C12.5813 3.96633 12.5191 3.81281 12.408 3.69833ZM16.3755 5.79192C15.484 5.15698 14.4649 4.72372 13.3891 4.52222L12.333 5.52911C12.1103 5.74389 11.7576 5.73404 11.5448 5.51138L10.601 4.52222C8.97123 4.83012 7.48846 5.66673 6.38225 6.90251H14.3822C14.5832 6.90251 15.3281 6.99118 16.002 7.43453C16.4808 7.75177 17.1842 8.39808 17.1842 9.42468C17.1842 10.3744 16.396 11.0858 15.6374 11.5666C15.6518 11.5779 15.666 11.5891 15.6801 11.6002C16.2663 12.0629 16.6399 12.3578 16.867 13.6335C16.9221 13.8739 17.3576 14.0848 17.7517 14.0395C18.1655 13.9941 18.6364 13.8109 18.6364 12.9754V12.6207C18.6364 12.5459 18.668 12.4946 18.7448 12.4946H19.5192C19.5519 12.0589 19.5466 11.6211 19.5034 11.1863L18.1123 10.5695C17.8325 10.4434 17.7044 10.1124 17.8286 9.83059L18.5517 8.19906C18.0096 7.24826 17.267 6.42686 16.3755 5.79192ZM5.10169 9.24382C4.99057 9.12939 4.83922 9.06279 4.67979 9.05818C4.59783 9.05581 4.51623 9.0699 4.43982 9.09963C4.36342 9.12937 4.29375 9.17413 4.23495 9.23127C4.17616 9.28842 4.12943 9.35678 4.09753 9.4323C4.06563 9.50783 4.04921 9.589 4.04924 9.67099C4.04924 9.83351 4.11381 9.98938 4.22873 10.1043C4.34365 10.2192 4.49952 10.2838 4.66205 10.2838C4.82458 10.2838 4.98045 10.2192 5.09537 10.1043C5.21029 9.98938 5.27486 9.83351 5.27486 9.67099C5.27492 9.51149 5.2128 9.35824 5.10169 9.24382ZM19.7125 9.2714C19.6014 9.15698 19.4501 9.09038 19.2906 9.08576C19.2087 9.08339 19.1271 9.09749 19.0507 9.12722C18.9743 9.15695 18.9046 9.20172 18.8458 9.25886C18.787 9.316 18.7403 9.38436 18.7084 9.45989C18.6765 9.53542 18.66 9.61658 18.6601 9.69857C18.6601 9.8611 18.7246 10.017 18.8396 10.1319C18.9545 10.2468 19.1104 10.3114 19.2729 10.3114C19.4354 10.3114 19.5913 10.2468 19.7062 10.1319C19.8211 10.017 19.8857 9.8611 19.8857 9.69857C19.8858 9.53907 19.8236 9.38583 19.7125 9.2714ZM6.90244 9.18429H5.83446L6.10639 9.79709C6.23249 10.0789 6.10442 10.4079 5.82264 10.534L4.50244 11.1212C4.39758 12.0876 4.48055 13.0652 4.74678 14H6.90244V9.18429ZM12.8355 9.23552H10.2916L10.2896 10.6562H12.6502C13.1527 10.6562 13.7635 10.4789 13.7635 9.98429C13.7635 9.38724 12.9675 9.23552 12.8355 9.23552ZM12.2404 12.6956H10.2916L10.2896 14.0769H12.0926C12.1616 14.0769 12.2088 14.0907 12.2088 14.1537V16.3331C12.2088 16.3981 12.1616 16.4099 12.0926 16.4099H5.93102C6.13153 16.6817 6.35009 16.9398 6.5852 17.1823L7.8522 16.9104C8.15368 16.8454 8.44924 17.0385 8.51427 17.34L8.82166 18.7744C9.80587 19.2315 10.8771 19.4707 11.9623 19.4758C13.0474 19.4809 14.1209 19.2518 15.1093 18.804L15.4167 17.3695C15.4818 17.068 15.7793 16.8749 16.0808 16.94L17.3754 17.2178C17.6267 16.9653 17.8598 16.6953 18.0729 16.4099H14.8926C14.3901 16.4099 13.9192 15.7005 13.8029 15.3459C13.7277 15.1406 13.6294 14.6541 13.5486 14.254C13.5045 14.0357 13.4655 13.8431 13.4384 13.736C13.1921 12.7468 12.4177 12.6956 12.2404 12.6956ZM7.87016 17.8724C7.75904 17.758 7.60769 17.6914 7.44826 17.6867C7.3663 17.6844 7.2847 17.6985 7.2083 17.7282C7.13189 17.7579 7.06222 17.8027 7.00343 17.8598C6.94463 17.917 6.8979 17.9853 6.866 18.0609C6.8341 18.1364 6.81768 18.2176 6.81772 18.2996C6.81772 18.4621 6.88228 18.618 6.9972 18.7329C7.11213 18.8478 7.268 18.9124 7.43052 18.9124C7.59305 18.9124 7.74892 18.8478 7.86384 18.7329C7.97877 18.618 8.04333 18.4621 8.04333 18.2996C8.0434 18.1401 7.98127 17.9868 7.87016 17.8724ZM16.9441 17.9C16.8329 17.7855 16.6816 17.719 16.5222 17.7143C16.4402 17.712 16.3586 17.7261 16.2822 17.7558C16.2058 17.7855 16.1361 17.8303 16.0773 17.8874C16.0185 17.9446 15.9718 18.0129 15.9399 18.0885C15.908 18.164 15.8916 18.2452 15.8916 18.3271C15.8916 18.4897 15.9562 18.6455 16.0711 18.7605C16.186 18.8754 16.3419 18.94 16.5044 18.94C16.6669 18.94 16.8228 18.8754 16.9377 18.7605C17.0527 18.6455 17.1172 18.4897 17.1172 18.3271C17.1173 18.1676 17.0552 18.0144 16.9441 17.9Z" fill="#FFA552"/>
</svg>
