<svg width="24" height="24" viewBox="0 0 24 24" fill="none" xmlns="http://www.w3.org/2000/svg">
<path d="M14.1598 13.5312H13.1115V12.0142H14.1854C14.3757 12.0142 14.5405 12.0526 14.6797 12.1293C14.8189 12.2045 14.9261 12.3054 15.0014 12.4318C15.0767 12.5568 15.1143 12.6932 15.1143 12.8409C15.1143 13.0327 15.0412 13.196 14.8949 13.331C14.75 13.4645 14.5049 13.5312 14.1598 13.5312Z" fill="#FFA552"/>
<path d="M14.0916 11.554H13.1115V10.1051H14.1086C14.3984 10.1051 14.6101 10.1726 14.7436 10.3076C14.8771 10.441 14.9439 10.6037 14.9439 10.7955C14.9439 10.9489 14.9055 11.0824 14.8289 11.196C14.7535 11.3096 14.6513 11.3977 14.522 11.4602C14.4442 11.4983 14.3605 11.5248 14.2711 11.5397C14.2137 11.5492 14.1539 11.554 14.0916 11.554Z" fill="#FFA552"/>
<path fill-rule="evenodd" clip-rule="evenodd" d="M3 4C3 3.44769 3.44769 3 4 3H20C20.5523 3 21 3.44769 21 4V20C21 20.5523 20.5523 21 20 21H4C3.44769 21 3 20.5523 3 20V4ZM10.0029 13.3096L8.7074 9.63635H8.15338L9.75568 14H10.3011L11.9034 9.63635H11.3494L10.054 13.3096H10.0029ZM12.5831 9.63635V14H14.1598C14.5035 14 14.7827 13.9489 14.9971 13.8466C15.2117 13.7443 15.3686 13.6058 15.468 13.4311C15.5674 13.2564 15.6172 13.0596 15.6172 12.8409C15.6172 12.6108 15.5717 12.4162 15.4808 12.2571C15.3899 12.098 15.277 11.9758 15.142 11.8906C15.0071 11.8054 14.8729 11.7585 14.7393 11.75V11.7074C14.8643 11.6733 14.9801 11.6207 15.0867 11.5497C15.1946 11.4787 15.2812 11.3821 15.3466 11.2599C15.4133 11.1378 15.4467 10.983 15.4467 10.7955C15.4467 10.5824 15.3984 10.3885 15.3018 10.2138C15.2053 10.0377 15.0582 9.89771 14.8608 9.79401C14.6633 9.6889 14.4127 9.63635 14.1086 9.63635H12.5831Z" fill="#FFA552"/>
</svg>
