<svg width="24" height="24" viewBox="0 0 24 24" fill="none" xmlns="http://www.w3.org/2000/svg">
<path d="M21.29 4.15996L17.17 2.15996C17.0174 2.09782 16.8548 2.06393 16.69 2.05996H16.61C16.3502 2.05849 16.0971 2.14285 15.89 2.29996L15.75 2.41996L7.87004 9.60996L4.44004 7.05996C4.28553 6.94176 4.0944 6.88159 3.90004 6.88996C3.70963 6.88779 3.52366 6.94744 3.37004 7.05996L2.27004 8.05996C2.18379 8.13622 2.11502 8.23019 2.06843 8.33547C2.02183 8.44075 1.9985 8.55484 2.00004 8.66996C1.99963 8.78637 2.02341 8.90159 2.06989 9.00833C2.11637 9.11506 2.18453 9.21096 2.27004 9.28996L5.27004 12L2.27004 14.72C2.18554 14.7986 2.11815 14.8937 2.07207 14.9996C2.02599 15.1054 2.00221 15.2195 2.00221 15.335C2.00221 15.4504 2.02599 15.5645 2.07207 15.6704C2.11815 15.7762 2.18554 15.8713 2.27004 15.95L3.37004 16.95C3.53591 17.095 3.7497 17.1734 3.97004 17.17C4.13928 17.1572 4.30182 17.0984 4.44004 17L7.87004 14.39L15.75 21.58C15.9517 21.7877 16.2216 21.9156 16.51 21.94H16.68C16.8509 21.9425 17.0196 21.9012 17.17 21.82L21.29 19.82C21.4985 19.7202 21.6752 19.5645 21.8006 19.3703C21.9259 19.1762 21.995 18.951 22 18.72V5.28996C21.9994 5.05402 21.9325 4.82301 21.8069 4.62324C21.6814 4.42346 21.5023 4.26294 21.29 4.15996ZM17 16.53L11 12L17 7.46996V16.53Z" fill="#FFA552"/>
</svg>
